<?xml version="1.0" encoding="utf-8"?>
<!-- Generator: Adobe Illustrator 16.0.0, SVG Export Plug-In . SVG Version: 6.00 Build 0)  -->
<!DOCTYPE svg PUBLIC "-//W3C//DTD SVG 1.1//EN" "http://www.w3.org/Graphics/SVG/1.1/DTD/svg11.dtd">
<svg version="1.1" id="Layer_1" xmlns="http://www.w3.org/2000/svg" xmlns:xlink="http://www.w3.org/1999/xlink" x="0px" y="0px"
	 width="308px" height="153px" viewBox="0 0 528 264" enable-background="new 0 0 528 264" xml:space="preserve">
<g>
	<path fill="#FFFFFF" d="M293,55v49c0,4.336,3.862,8,8.434,8H308v13h-41V55H293 M294,54h-28v72h43v-15h-7.566
		c-3.914,0-7.434-3.086-7.434-7V54L294,54z"/>
</g>
<g>
	<path fill="#FFFFFF" d="M236,55v49c0,4.336,3.862,8,8.434,8H251v13h-41V55H236 M237,54h-28v72h43v-15h-7.566
		c-3.914,0-7.434-3.086-7.434-7V54L237,54z"/>
</g>
<g>
	<path fill="#FFFFFF" d="M355,54c19.851,0,36,16.149,36,36s-16.149,36-36,36s-36-16.149-36-36S335.149,54,355,54 M355,53
		c-20.49,0-37,16.511-37,37c0,20.49,16.51,37,37,37c20.489,0,37-16.51,37-37C392,69.511,375.489,53,355,53L355,53z"/>
</g>
<g>
	<path fill="#FFFFFF" d="M216,138c19.851,0,36,16.149,36,36s-16.149,36-36,36s-36-16.149-36-36S196.149,138,216,138 M216,137
		c-20.49,0-37,16.511-37,37c0,20.49,16.51,37,37,37c20.489,0,37-16.51,37-37C253,153.511,236.489,137,216,137L216,137z"/>
</g>
<g>
	<path fill="#FFFFFF" d="M442.998,139c9.206,0.043,17.945,3.709,24.607,10.323C474.309,155.977,478,164.74,478,174
		s-3.691,18.024-10.395,24.678c-6.663,6.614-15.402,10.28-24.605,10.322h-34v-70H442.998 M443,138h-35v72h35
		c19.494-0.089,36-16.211,36-36S462.494,138.091,443,138L443,138z"/>
</g>
<g>
	<path fill="#FFFFFF" d="M165,139v41.606L138.565,209H119v-6c0-4.71-3.981-9-8.353-9c-4.575,0-7.647,4.654-7.647,9v6H82.424
		L55,180.596V139h26v6c0,4.486,3.514,8,8,8s8-3.514,8-8v-6h27v6c0,4.486,3.514,8,8,8s8-3.514,8-8v-6H165 M166,138h-27v7
		c0,3.968-3.087,7-7,7c-3.914,0-7-3.032-7-7v-7H96v7c0,3.968-3.087,7-7,7c-3.914,0-7-3.032-7-7v-7H54v43l28,29h22v-7
		c0-3.969,2.733-8,6.647-8s7.353,4.031,7.353,8v7h21l27-29V138L166,138z"/>
</g>
<g>
	<path fill="#FFFFFF" d="M308,139c15.178,0,28,12.822,28,28c0,9.752-5.043,18.949-13.162,24.002l-0.74,0.46l0.354,0.796
		C323.718,195.095,326.75,197,330,197h3v12h-24v-6c0-4.486-3.514-8-8-8s-8,3.514-8,8v6h-27v-70h28H308 M308,138c-0.008,0-14,0-14,0
		h-29v72h29v-7c0-3.97,3.086-7,7-7s7,3.03,7,7v7h26v-14h-4c-2.875,0-5.522-1.656-6.633-4.148C331.49,186.795,337,177.374,337,167
		C337,151.124,323.656,138,308,138L308,138z"/>
</g>
<g>
	<path fill="#FFFFFF" d="M123,55v70H97v-7c0-4.486-3.514-8-8-8s-8,3.514-8,8v3v4H55V55h26v6c0,5.304,4.216,9,8,9
		c4.336,0,8-3.853,8-8.413V61v-6H123 M124,54H96v7v0.587C96,65.5,92.913,69,89,69c-3.914,0-7-4.086-7-8v-7H54v72h28v-5v-3
		c0-3.914,3.087-7,7-7c3.914,0,7,3.086,7,7v8h28V54L124,54z"/>
</g>
<g>
	<path fill="#FFFFFF" d="M194,55v13h-6c-4.561,0-8,3.336-8,7.76c0,4.273,3.315,7.783,7.498,8.068
		c0.192,0.127,0.408,0.172,0.559,0.172H194v12h-6c-4.486,0-8,3.514-8,8s3.514,8,8,8h6v13h-55V55H194 M195,54h-57v72h57v-15h-7
		c-3.914,0-7-3.086-7-7c0-3.914,3.086-7,7-7h7V83h-6.943c-0.003,0-0.007-0.153-0.01-0.153c-3.914,0-7.047-3.173-7.047-7.086
		c0-3.914,3.086-6.76,7-6.76h7V54L195,54z"/>
</g>
<g>
	<path fill="#FFFFFF" d="M378,139v49c0,4.336,3.862,8,8.434,8H393v13h-41v-70H378 M379,138h-28v72h43v-15h-7.566
		c-3.914,0-7.434-3.086-7.434-7V138L379,138z"/>
</g>
</svg>
