<?xml version="1.0"?>
<svg width="294.985" height="109.004" xmlns="http://www.w3.org/2000/svg" xmlns:svg="http://www.w3.org/2000/svg">
 <g>
  <title>Layer 1</title>
  <g id="svg_1">
   <path fill="#ffffff" d="m163.591995,2.281l0,33.522002c0,2.966 2.641006,5.473 5.770004,5.473l4.492004,0l0,8.893997l-28.049011,0l0,-47.888998l17.787003,0m0.684006,-0.684l-19.154999,0l0,49.257l29.416992,0l0,-10.262001l-5.175995,0c-2.677994,0 -5.085999,-2.111 -5.085999,-4.788998l0,-34.206001l0,0l0,0c0,0 0,0 0,0z" id="svg_2"/>
  </g>
  <path fill="#ffffff" d="m124.597,2.281l0,33.522002c0,2.966 2.640999,5.473 5.770004,5.473l4.491989,0l0,8.893997l-28.048996,0l0,-47.888998l17.787003,0m0.683998,-0.684l-19.154999,0l0,49.257l29.417,0l0,-10.262001l-5.175995,0c-2.678001,0 -5.086006,-2.111 -5.086006,-4.788998l0,-34.206001l0,0l0,0c0,0 0,0 0,0z" id="svg_4"/>
  <g id="svg_5">
   <path fill="#ffffff" d="m206.007996,1.597c13.580002,0 24.628006,11.048 24.628006,24.628s-11.048004,24.628 -24.628006,24.628c-13.580994,0 -24.627991,-11.048 -24.627991,-24.628s11.046997,-24.628 24.627991,-24.628m0,-0.684c-14.01799,0 -25.311996,11.296 -25.311996,25.312c0,14.018 11.294998,25.311998 25.311996,25.311998c14.016006,0 25.312012,-11.294998 25.312012,-25.311998c0,-14.017 -11.296005,-25.312 -25.312012,-25.312l0,0z" id="svg_6"/>
  </g>
  <g id="svg_7">
   <path fill="#ffffff" d="m110.915001,59.063c13.580002,0 24.627998,11.047001 24.627998,24.628002s-11.047997,24.627998 -24.627998,24.627998c-13.581001,0 -24.627998,-11.046997 -24.627998,-24.627998s11.046997,-24.628002 24.627998,-24.628002m0,-0.683998c-14.017998,0 -25.312004,11.296001 -25.312004,25.312c0,14.017998 11.295006,25.311996 25.312004,25.311996c14.015999,0 25.312004,-11.294998 25.312004,-25.311996c0,-14.015999 -11.295006,-25.312 -25.312004,-25.312l0,0z" id="svg_8"/>
  </g>
  <g id="svg_9">
   <path fill="#ffffff" d="m266.208008,59.747002c6.298004,0.028999 12.277008,2.536999 16.834015,7.060997c4.586975,4.553001 7.112,10.548004 7.112,16.883003c0,6.334999 -2.525024,12.330002 -7.112,16.882996c-4.558014,4.525002 -10.537018,7.033005 -16.832001,7.061005l-23.26001,0l0,-47.888l23.257996,0m0.001984,-0.684002l-23.944,0l0,49.257l23.944,0c13.335999,-0.060997 24.627991,-11.089996 24.627991,-24.627998s-11.291992,-24.567001 -24.627991,-24.629002l0,0z" id="svg_10"/>
  </g>
  <g id="svg_11">
   <path fill="#ffffff" d="m76.025002,59.747002l0,28.462997l-18.085003,19.425003l-13.384998,0l0,-4.105003c0,-3.222 -2.723,-6.156998 -5.715,-6.156998c-3.130001,0 -5.230999,3.183998 -5.230999,6.156998l0,4.105003l-14.076,0l-18.762001,-19.431l0,-28.457001l17.787001,0l0,4.105c0,3.068996 2.403999,5.472996 5.473,5.472996c3.068001,0 5.473,-2.403999 5.473,-5.472996l0,-4.105l18.470999,0l0,4.105c0,3.068996 2.404003,5.472996 5.473003,5.472996c3.067997,0 5.473,-2.403999 5.473,-5.472996l0,-4.105l17.104,0m0.683998,-0.684002l-18.471001,0l0,4.789001c0,2.715 -2.112,4.788998 -4.788998,4.788998c-2.678001,0 -4.789001,-2.073997 -4.789001,-4.788998l0,-4.789001l-19.84,0l0,4.789001c0,2.715 -2.112,4.788998 -4.789,4.788998c-2.677999,0 -4.789,-2.073997 -4.789,-4.788998l0,-4.789001l-19.155001,0l0,29.417004l19.155001,19.838997l15.050999,0l0,-4.789001c0,-2.714996 1.868999,-5.473 4.547001,-5.473s5.030998,2.758003 5.030998,5.473l0,4.789001l14.367001,0l18.471001,-19.838997l0,-29.417004l0,0z" id="svg_12"/>
  </g>
  <g id="svg_13">
   <path fill="#ffffff" d="m173.854004,59.747002c10.384003,0 19.154999,8.771996 19.154999,19.154999c0,6.671997 -3.449997,12.962997 -9.003998,16.419998l-0.506012,0.315002l0.242004,0.544998c0.865997,1.942001 2.940002,3.244003 5.164001,3.244003l2.052002,0l0,8.209l-16.419006,0l0,-4.105003c0,-3.069 -2.404999,-5.473 -5.472992,-5.473c-3.069,0 -5.473007,2.403999 -5.473007,5.473l0,4.105003l-18.470993,0l0,-47.888l19.154999,0l9.578003,0m0,-0.684002c-0.005005,0 -9.578003,0 -9.578003,0l-19.839005,0l0,49.257l19.839005,0l0,-4.789001c0,-2.716995 2.110992,-4.789001 4.789001,-4.789001s4.789001,2.072006 4.789001,4.789001l0,4.789001l17.787003,0l0,-9.578003l-2.736008,0c-1.966995,0 -3.778,-1.132996 -4.537994,-2.837997c5.556992,-3.459999 9.326996,-9.904999 9.326996,-17.001999c-0.001007,-10.861 -9.130005,-19.839001 -19.839996,-19.839001l0,0z" id="svg_14"/>
  </g>
  <g id="svg_15">
   <path fill="#ffffff" d="m47.292,2.281l0,47.887999l-17.787001,0l0,-4.788998c0,-3.069 -2.404999,-5.473 -5.473,-5.473c-3.069,0 -5.473,2.403999 -5.473,5.473l0,2.051998l0,2.736l-17.788,0l0,-47.886999l17.787001,0l0,4.105c0,3.629 2.883999,6.157 5.473,6.157c2.966,0 5.473,-2.636001 5.473,-5.755l0,-0.402l0,-4.105l17.788,0m0.684002,-0.684l-19.156002,0l0,4.789l0,0.402c0,2.677 -2.112,5.071 -4.789,5.071c-2.677999,0 -4.789,-2.795 -4.789,-5.473l0,-4.789l-19.155001,0l0,49.257l19.155001,0l0,-3.421001l0,-2.052998c0,-2.678001 2.112,-4.789001 4.789,-4.789001c2.677999,0 4.789,2.111 4.789,4.789001l0,5.473l19.154999,0l0,-49.256001l0.001003,0c0,0 0,0 0,0z" id="svg_16"/>
  </g>
  <g id="svg_17">
   <path fill="#ffffff" d="m95.863998,2.281l0,8.894l-4.104996,0c-3.121002,0 -5.473,2.282 -5.473,5.308999c0,2.923 2.266998,5.325001 5.129997,5.519001c0.130997,0.087 0.278,0.118 0.381996,0.118l4.066002,0l0,8.209l-4.104996,0c-3.069,0 -5.473,2.404001 -5.473,5.473001s2.403999,5.473 5.473,5.473l4.104996,0l0,8.893997l-37.625999,0l0,-47.888998l37.625999,0m0.683998,-0.684l-38.994995,0l0,49.257l38.994995,0l0,-10.262001l-4.788994,0c-2.678001,0 -4.789001,-2.111 -4.789001,-4.788998c0,-2.678001 2.111,-4.789001 4.789001,-4.789001l4.788994,0l0,-9.577999l-4.75,0c-0.001999,0 -0.004997,-0.105001 -0.006996,-0.105001c-2.678001,0 -4.820999,-2.171 -4.820999,-4.848c0,-2.677999 2.111,-4.625 4.789001,-4.625l4.788994,0l0,-10.261l0,0l0,0c0,0 0,0 0,0z" id="svg_18"/>
  </g>
  <g id="svg_19">
   <path fill="#ffffff" d="m221.742004,59.747002l0,33.521996c0,2.966003 2.640991,5.473 5.769989,5.473l4.492004,0l0,8.894005l-28.048996,0l0,-47.889l17.787003,0m0.68399,-0.684002l-19.154999,0l0,49.257l29.416992,0l0,-10.262001l-5.175995,0c-2.678009,0 -5.085999,-2.111 -5.085999,-4.789001l0,-34.205997l0,0z" id="svg_20"/>
  </g>
 </g>
</svg>