<?xml version="1.0" encoding="utf-8"?>
<!-- Generator: Adobe Illustrator 17.0.0, SVG Export Plug-In . SVG Version: 6.00 Build 0)  -->
<!DOCTYPE svg PUBLIC "-//W3C//DTD SVG 1.1//EN" "http://www.w3.org/Graphics/SVG/1.1/DTD/svg11.dtd">
<svg version="1.1" id="Layer_1" xmlns="http://www.w3.org/2000/svg" xmlns:xlink="http://www.w3.org/1999/xlink" x="0px" y="0px"
	 width="295px" height="109px" viewBox="0 0 295 109" enable-background="new 0 0 295 109" xml:space="preserve">
<g>
	<path fill="#FFFFFF" d="M162.488,4.284v31.959c0,3.685,3.249,6.8,7.095,6.8h3.105v6.12h-25.159V4.284H162.488 M164.528,2.244
		h-19.039v48.958h29.239v-10.2h-5.145c-2.661,0-5.055-2.098-5.055-4.76V2.244L164.528,2.244z"/>
</g>
<g>
	<path fill="#FFFFFF" d="M123.729,4.284v31.959c0,3.685,3.249,6.8,7.095,6.8h3.105v6.12H108.77V4.284H123.729 M125.769,2.244H106.73
		v48.958h29.239v-10.2h-5.145c-2.661,0-5.055-2.098-5.055-4.76V2.244L125.769,2.244z"/>
</g>
<g>
	<path fill="#FFFFFF" d="M206.006,3.604c12.748,0,23.119,10.371,23.119,23.119s-10.371,23.119-23.119,23.119
		s-23.119-10.371-23.119-23.119S193.258,3.604,206.006,3.604 M206.006,1.564c-13.933,0-25.159,11.227-25.159,25.159
		c0,13.933,11.226,25.159,25.159,25.159c13.932,0,25.159-11.226,25.159-25.159C231.165,12.791,219.938,1.564,206.006,1.564
		L206.006,1.564z"/>
</g>
<g>
	<path fill="#FFFFFF" d="M111.489,60.722c12.748,0,23.119,10.371,23.119,23.119s-10.371,23.119-23.119,23.119
		S88.37,96.589,88.37,83.841S98.741,60.722,111.489,60.722 M111.489,58.682c-13.933,0-25.159,11.227-25.159,25.159
		C86.33,97.774,97.557,109,111.489,109c13.932,0,25.159-11.226,25.159-25.159C136.649,69.909,125.421,58.682,111.489,58.682
		L111.489,58.682z"/>
</g>
<g>
	<path fill="#FFFFFF" d="M265.839,61.402c5.9,0.029,11.503,2.381,15.778,6.625c4.299,4.267,6.666,9.883,6.666,15.814
		c0,5.931-2.367,11.548-6.666,15.815c-4.276,4.244-9.881,6.597-15.773,6.624h-21.759V61.402H265.839 M265.844,59.362h-23.799v48.958
		h23.799c13.255-0.061,24.479-11.023,24.479-24.479S279.099,59.424,265.844,59.362L265.844,59.362z"/>
</g>
<g>
	<path fill="#FFFFFF" d="M75.451,61.402v26.397L58.243,106.28H46.892v-2.72c0-3.915-3.356-7.48-7.04-7.48
		c-3.155,0-6.56,2.86-6.56,7.48v2.72H21.238L3.373,87.777V61.402h14.959v2.72c0,3.813,2.987,6.8,6.8,6.8s6.8-2.987,6.8-6.8v-2.72
		h15.639v2.72c0,3.813,2.987,6.8,6.8,6.8c3.813,0,6.8-2.987,6.8-6.8v-2.72H75.451 M77.491,59.362H59.131v4.76
		c0,2.698-2.099,4.76-4.76,4.76c-2.661,0-4.76-2.062-4.76-4.76v-4.76H29.892v4.76c0,2.698-2.099,4.76-4.76,4.76
		c-2.661,0-4.76-2.062-4.76-4.76v-4.76H1.333v29.239l19.039,19.719h14.959v-4.76c0-2.699,1.858-5.44,4.52-5.44
		c2.661,0,5,2.741,5,5.44v4.76h14.279l18.359-19.719V59.362L77.491,59.362z"/>
</g>
<g>
	<path fill="#FFFFFF" d="M174.047,61.402c9.583,0,17.679,8.096,17.679,17.679c0,6.165-3.184,11.976-8.309,15.167l-1.509,0.939
		l0.723,1.623c1.091,2.449,3.594,4.03,6.374,4.03h0.68v5.44h-13.6v-2.72c0-3.813-2.987-6.8-6.8-6.8s-6.8,2.987-6.8,6.8v2.72h-15.639
		V61.402h17.679L174.047,61.402 M174.047,59.362c-0.005,0-9.52,0-9.52,0h-19.719v48.958h19.719v-4.76c0-2.7,2.098-4.76,4.76-4.76
		s4.76,2.06,4.76,4.76v4.76h17.679V98.8h-2.72c-1.955,0-3.755-1.126-4.51-2.821c5.523-3.439,9.27-9.845,9.27-16.899
		C193.767,68.286,184.693,59.362,174.047,59.362L174.047,59.362z"/>
</g>
<g>
	<path fill="#FFFFFF" d="M46.892,4.284v44.878H31.932v-3.4c0-3.813-2.987-6.8-6.8-6.8s-6.8,2.987-6.8,6.8v2.04v1.36H3.373V4.284
		h14.959v2.72c0,3.538,2.793,7.48,6.8,7.48c3.685,0,6.8-3.243,6.8-7.081V7.004v-2.72H46.892 M48.932,2.244H29.892v4.76v0.399
		c0,2.661-2.099,5.041-4.76,5.041c-2.661,0-4.76-2.778-4.76-5.44v-4.76H1.333v48.958h19.039v-3.4v-2.04
		c0-2.661,2.099-4.76,4.76-4.76c2.661,0,4.76,2.098,4.76,4.76v5.44h19.039V2.244L48.932,2.244z"/>
</g>
<g>
	<path fill="#FFFFFF" d="M95.17,4.284v6.12h-2.72c-3.813,0-6.8,2.915-6.8,6.637c0,3.53,2.671,6.446,6.091,6.818
		c0.242,0.096,0.498,0.144,0.748,0.144h2.681v5.44h-2.72c-3.813,0-6.8,2.987-6.8,6.8c0,3.813,2.987,6.8,6.8,6.8h2.72v6.12H60.491
		V4.284H95.17 M97.21,2.244H58.451v48.958H97.21v-10.2h-4.76c-2.661,0-4.76-2.098-4.76-4.76c0-2.661,2.098-4.76,4.76-4.76h4.76
		v-9.52h-4.721c-0.002,0-0.005-0.104-0.007-0.104c-2.661,0-4.792-2.158-4.792-4.818c0-2.661,2.098-4.597,4.76-4.597h4.76
		L97.21,2.244L97.21,2.244z"/>
</g>
<g>
	<path fill="#FFFFFF" d="M220.286,61.402v31.959c0,3.685,3.249,6.8,7.095,6.8h3.105v6.12h-25.159V61.402H220.286 M222.326,59.362
		h-19.039v48.958h29.239v-10.2h-5.145c-2.661,0-5.055-2.098-5.055-4.76V59.362L222.326,59.362z"/>
</g>
</svg>
