<?xml version="1.0"?>
<svg width="426" height="160" xmlns="http://www.w3.org/2000/svg" xmlns:svg="http://www.w3.org/2000/svg">
 <g>
  <title>Layer 1</title>
  <g id="svg_1">
   <path d="m239.087341,2.91262l0,48.999989c0,4.336002 3.860992,8 8.43399,8l6.566071,0l0,13.00005l-41.000061,0l0,-70.000029l26,0m1,-1l-28,0l0,72.000029l43.000122,0l0,-15.00005l-7.566132,0c-3.914001,0 -7.43399,-3.085999 -7.43399,-7l0,-49.999989l0,0l0,0.00001l0,0z" id="svg_2" stroke-width="0" fill="#000000"/>
  </g>
  <path d="m182.087341,2.91262l0,48.999989c0,4.336002 3.860992,8 8.434006,8l6.565994,0l0,13.00005l-41,0l0,-70.000029l26,0m1,-1l-28,0l0,72.000029l43,0l0,-15.00005l-7.565994,0c-3.914001,0 -7.434006,-3.085999 -7.434006,-7l0,-49.999989l0,0l0,0.00001l0,0z" id="svg_4" stroke-width="0" fill="#000000"/>
  <g id="svg_5">
   <path d="m301.087524,1.91262c19.851013,0 36,16.148989 36,35.999989s-16.148987,36.00005 -36,36.00005c-19.85199,0 -36,-16.149059 -36,-36.00005s16.148987,-35.999989 36,-35.999989m0,-1c-20.48999,0 -37,16.511 -37,36.999989c0,20.490002 16.51001,37.00005 37,37.00005c20.488007,0 37,-16.510048 37,-37.00005c0,-20.488989 -16.510986,-36.999989 -37,-36.999989l0,0z" id="svg_6" stroke-width="0" fill="#000000"/>
  </g>
  <g id="svg_7">
   <path d="m162.087341,85.912659c19.850998,0 36,16.147995 36,36s-16.149002,36 -36,36c-19.852005,0 -36,-16.14798 -36,-36s16.149002,-36 36,-36m0,-1c-20.490005,0 -37,16.511993 -37,37c0,20.490021 16.509995,37 37,37c20.488007,0 37,-16.509979 37,-37c0,-20.488007 -16.511002,-37 -37,-37l0,0z" id="svg_8" stroke-width="0" fill="#000000"/>
  </g>
  <g id="svg_9">
   <path d="m389.084534,86.912659c9.205994,0.043015 17.945007,3.709015 24.606995,10.322014c6.704987,6.654999 10.395996,15.417999 10.395996,24.677986s-3.69101,18.022995 -10.395996,24.677994c-6.662994,6.614014 -15.402008,10.279999 -24.604004,10.322006l-34,0l0,-70l33.997009,0m0.002991,-1l-35,0l0,72l35,0c19.493011,-0.088989 36,-16.210999 36,-36s-16.506989,-35.908997 -36,-36l0,0z" id="svg_10" stroke-width="0" fill="#000000"/>
  </g>
  <g id="svg_11">
   <path d="m111.087341,86.912659l0,41.604996l-26.434998,28.395004l-19.565002,0l0,-6c0,-4.710007 -3.980961,-9 -8.353951,-9c-4.575001,0 -7.646,4.654007 -7.646,9l0,6l-20.576,0l-27.424011,-28.404007l0,-41.595993l26.000011,0l0,6c0,4.485992 3.514,8 8,8c4.485001,0 8,-3.514008 8,-8l0,-6l26.99995,0l0,6c0,4.485992 3.514,8 8,8c4.485001,0 8,-3.514008 8,-8l0,-6l25,0m1,-1l-27,0l0,7c0,3.968994 -3.087013,7 -7,7c-3.914001,0 -7,-3.031006 -7,-7l0,-7l-28.99995,0l0,7c0,3.968994 -3.087002,7 -7,7c-3.914001,0 -7,-3.031006 -7,-7l0,-7l-28.000011,0l0,43l28.000011,29l22,0l0,-7c0,-3.968979 2.731998,-8 6.646,-8s7.353951,4.031021 7.353951,8l0,7l21,0l27,-29l0,-43l0,0z" id="svg_12" stroke-width="0" fill="#000000"/>
  </g>
  <g id="svg_13">
   <path d="m254.087402,86.912659c15.178131,0 28.000122,12.822014 28.000122,28c0,9.752014 -5.042999,18.94902 -13.161987,24.001999l-0.740021,0.460022l0.354004,0.79599c1.265991,2.837997 4.298004,4.741989 7.548004,4.741989l3,0l0,12l-24.000076,0l0,-6c0,-4.485992 -3.515137,-8 -8.000122,-8c-4.485992,0 -8,3.514008 -8,8l0,6l-27,0l0,-70l28,0l14.000061,0m0,-1c-0.007996,0 -14.000061,0 -14.000061,0l-29,0l0,72l29,0l0,-7c0,-3.970993 3.085999,-7 7,-7s7.000061,3.029007 7.000061,7l0,7l26.000137,0l0,-14l-4,0c-2.875,0 -5.522003,-1.656006 -6.633026,-4.14798c8.123016,-5.057022 13.633026,-14.47802 13.633026,-24.85202c0,-15.876007 -13.343994,-29 -29.000137,-29l0,0z" id="svg_14" stroke-width="0" fill="#000000"/>
  </g>
  <g id="svg_15">
   <path d="m69.087341,2.91262l0,70.000031l-25.99995,0l0,-7.000008c0,-4.486034 -3.514999,-8.000034 -8,-8.000034c-4.486,0 -8,3.514 -8,8.000034l0,3.000008l0,4l-26.000011,0l0,-70.000031l26.000011,0l0,6c0,5.304001 4.216,8.99999 8,8.99999c4.335999,0 8,-3.852989 8,-8.412989l0,-0.587001l0,-6l25.99995,0m1,-1l-27.99995,0l0,7l0,0.587001c0,3.912999 -3.087002,7.413 -7,7.413c-3.914001,0 -7,-4.086 -7,-8.000001l0,-7l-28.000011,0l0,72.000031l28.000011,0l0,-5l0,-3.000008c0,-3.914043 3.087,-7.000023 7,-7.000023c3.913998,0 7,3.085999 7,7.000023l0,8.000008l27.99995,0l0,-72.000031l0,0l0,0z" id="svg_16" stroke-width="0" fill="#000000"/>
  </g>
  <g id="svg_17">
   <path d="m140.087341,2.91262l0,13l-6,0c-4.561996,0 -8,3.33598 -8,7.75999c0,4.272991 3.313995,7.783001 7.498001,8.068001c0.190994,0.127001 0.406998,0.171999 0.559006,0.171999l5.942993,0l0,12l-6,0c-4.485992,0 -8,3.514 -8,8s3.514008,8 8,8l6,0l0,13.00005l-55,0l0,-70.000029l55,0m1,-1l-57,0l0,72.000029l57,0l0,-15.00005l-7,0c-3.914001,0 -7,-3.085999 -7,-7s3.085999,-7 7,-7l7,0l0,-14l-6.942993,0c-0.003006,0 -0.007004,-0.153 -0.01001,-0.153c-3.914001,0 -7.046997,-3.172998 -7.046997,-7.085999c0,-3.914001 3.085999,-6.759991 7,-6.759991l7,0l0,-15.001l0,0l0,0.00001l0,0z" id="svg_18" stroke-width="0" fill="#000000"/>
  </g>
  <g id="svg_19">
   <path d="m324.087524,86.912659l0,49c0,4.335999 3.860992,8 8.43399,8l6.56601,0l0,13l-41,0l0,-70l26,0m1,-1l-28,0l0,72l43,0l0,-15l-7.56601,0c-3.914001,0 -7.43399,-3.085999 -7.43399,-7l0,-50l0,0z" id="svg_20" stroke-width="0" fill="#000000"/>
  </g>
 </g>
</svg>