<?xml version="1.0" encoding="utf-8"?>
<!-- Generator: Adobe Illustrator 17.0.0, SVG Export Plug-In . SVG Version: 6.00 Build 0)  -->
<!DOCTYPE svg PUBLIC "-//W3C//DTD SVG 1.1//EN" "http://www.w3.org/Graphics/SVG/1.1/DTD/svg11.dtd">
<svg version="1.1" id="Layer_1" xmlns:svg="http://www.w3.org/2000/svg"
	 xmlns="http://www.w3.org/2000/svg" xmlns:xlink="http://www.w3.org/1999/xlink" x="0px" y="0px" width="294.985px"
	 height="109.004px" viewBox="0 0 294.985 109.004" enable-background="new 0 0 294.985 109.004" xml:space="preserve">
<g>
	<title>Layer 1</title>
	<g id="svg_1">
		<path id="svg_2" d="M163.592,2.281v33.522c0,2.966,2.641,5.473,5.77,5.473h4.492v8.894h-28.049V2.281L163.592,2.281
			 M164.276,1.597h-19.155v49.257h29.417V40.592h-5.176c-2.678,0-5.086-2.111-5.086-4.789V1.597L164.276,1.597L164.276,1.597
			C164.276,1.597,164.276,1.597,164.276,1.597z"/>
	</g>
	<path id="svg_4" d="M124.597,2.281v33.522c0,2.966,2.641,5.473,5.77,5.473h4.492v8.894H106.81V2.281L124.597,2.281 M125.281,1.597
		h-19.155v49.257h29.417V40.592h-5.176c-2.678,0-5.086-2.111-5.086-4.789V1.597L125.281,1.597L125.281,1.597
		C125.281,1.597,125.281,1.597,125.281,1.597z"/>
	<g id="svg_5">
		<path id="svg_6" d="M206.008,1.597c13.58,0,24.628,11.048,24.628,24.628s-11.048,24.628-24.628,24.628
			c-13.581,0-24.628-11.048-24.628-24.628S192.427,1.597,206.008,1.597 M206.008,0.913c-14.018,0-25.312,11.296-25.312,25.312
			c0,14.018,11.295,25.312,25.312,25.312c14.016,0,25.312-11.295,25.312-25.312C231.32,12.208,220.024,0.913,206.008,0.913
			L206.008,0.913z"/>
	</g>
	<g id="svg_7">
		<path id="svg_8" d="M110.915,59.063c13.58,0,24.628,11.047,24.628,24.628s-11.048,24.628-24.628,24.628
			c-13.581,0-24.628-11.047-24.628-24.628S97.334,59.063,110.915,59.063 M110.915,58.379c-14.018,0-25.312,11.296-25.312,25.312
			c0,14.018,11.295,25.312,25.312,25.312c14.016,0,25.312-11.295,25.312-25.312C136.227,69.675,124.932,58.379,110.915,58.379
			L110.915,58.379z"/>
	</g>
	<g id="svg_9">
		<path id="svg_10" d="M266.208,59.747c6.298,0.029,12.277,2.537,16.834,7.061c4.587,4.553,7.112,10.548,7.112,16.883
			c0,6.335-2.525,12.33-7.112,16.883c-4.558,4.525-10.537,7.033-16.832,7.061h-23.26V59.747H266.208 M266.21,59.063h-23.944v49.257
			h23.944c13.336-0.061,24.628-11.09,24.628-24.628S279.546,59.125,266.21,59.063L266.21,59.063z"/>
	</g>
	<g id="svg_11">
		<path id="svg_12" d="M76.025,59.747V88.21L57.94,107.635H44.555v-4.105c0-3.222-2.723-6.157-5.715-6.157
			c-3.13,0-5.231,3.184-5.231,6.157v4.105H19.533L0.771,88.204V59.747h17.787v4.105c0,3.069,2.404,5.473,5.473,5.473
			c3.068,0,5.473-2.404,5.473-5.473v-4.105h18.471v4.105c0,3.069,2.404,5.473,5.473,5.473c3.068,0,5.473-2.404,5.473-5.473v-4.105
			H76.025 M76.709,59.063H58.238v4.789c0,2.715-2.112,4.789-4.789,4.789c-2.678,0-4.789-2.074-4.789-4.789v-4.789H28.82v4.789
			c0,2.715-2.112,4.789-4.789,4.789c-2.678,0-4.789-2.074-4.789-4.789v-4.789H0.087V88.48l19.155,19.839h15.051v-4.789
			c0-2.715,1.869-5.473,4.547-5.473s5.031,2.758,5.031,5.473v4.789h14.367L76.709,88.48V59.063L76.709,59.063z"/>
	</g>
	<g id="svg_13">
		<path id="svg_14" d="M173.854,59.747c10.384,0,19.155,8.772,19.155,19.155c0,6.672-3.45,12.963-9.004,16.42l-0.506,0.315
			l0.242,0.545c0.866,1.942,2.94,3.244,5.164,3.244h2.052v8.209h-16.419v-4.105c0-3.069-2.405-5.473-5.473-5.473
			c-3.069,0-5.473,2.404-5.473,5.473v4.105h-18.471V59.747h19.155H173.854 M173.854,59.063c-0.005,0-9.578,0-9.578,0h-19.839v49.257
			h19.839v-4.789c0-2.717,2.111-4.789,4.789-4.789s4.789,2.072,4.789,4.789v4.789h17.787v-9.578h-2.736
			c-1.967,0-3.778-1.133-4.538-2.838c5.557-3.46,9.327-9.905,9.327-17.002C193.693,68.041,184.564,59.063,173.854,59.063
			L173.854,59.063z"/>
	</g>
	<g id="svg_15">
		<path id="svg_16" d="M47.292,2.281v47.888H29.505V45.38c0-3.069-2.405-5.473-5.473-5.473c-3.069,0-5.473,2.404-5.473,5.473v2.052
			v2.736H0.771V2.281h17.787v4.105c0,3.629,2.884,6.157,5.473,6.157c2.966,0,5.473-2.636,5.473-5.755V6.386V2.281L47.292,2.281
			 M47.976,1.597H28.82v4.789v0.402c0,2.677-2.112,5.071-4.789,5.071c-2.678,0-4.789-2.795-4.789-5.473V1.597H0.087v49.257h19.155
			v-3.421V45.38c0-2.678,2.112-4.789,4.789-4.789c2.678,0,4.789,2.111,4.789,4.789v5.473h19.155V1.597L47.976,1.597
			C47.976,1.597,47.976,1.597,47.976,1.597z"/>
	</g>
	<g id="svg_17">
		<path id="svg_18" d="M95.864,2.281v8.894h-4.105c-3.121,0-5.473,2.282-5.473,5.309c0,2.923,2.267,5.325,5.13,5.519
			c0.131,0.087,0.278,0.118,0.382,0.118h4.066v8.209h-4.105c-3.069,0-5.473,2.404-5.473,5.473s2.404,5.473,5.473,5.473h4.105v8.894
			H58.238V2.281L95.864,2.281 M96.548,1.597H57.553v49.257h38.995V40.592h-4.789c-2.678,0-4.789-2.111-4.789-4.789
			c0-2.678,2.111-4.789,4.789-4.789h4.789v-9.578h-4.75c-0.002,0-0.005-0.105-0.007-0.105c-2.678,0-4.821-2.171-4.821-4.848
			c0-2.678,2.111-4.625,4.789-4.625h4.789V1.597L96.548,1.597L96.548,1.597C96.548,1.597,96.548,1.597,96.548,1.597z"/>
	</g>
	<g id="svg_19">
		<path id="svg_20" d="M221.742,59.747v33.522c0,2.966,2.641,5.473,5.77,5.473h4.492v8.894h-28.049V59.747H221.742 M222.426,59.063
			h-19.155v49.257h29.417V98.058h-5.176c-2.678,0-5.086-2.111-5.086-4.789V59.063L222.426,59.063z"/>
	</g>
</g>
</svg>
